<?xml version="1.0" encoding="UTF-8" standalone="no"?>
<!-- Created with Inkscape (http://www.inkscape.org/) -->

<svg
   width="512"
   height="512"
   viewBox="0 0 512 512"
   version="1.1"
   id="svg1"
   xml:space="preserve"
   inkscape:version="1.4.2 (ebf0e940d0, 2025-05-08)"
   sodipodi:docname="icon.svg"
   inkscape:export-filename="icon.png"
   inkscape:export-xdpi="96"
   inkscape:export-ydpi="96"
   xmlns:inkscape="http://www.inkscape.org/namespaces/inkscape"
   xmlns:sodipodi="http://sodipodi.sourceforge.net/DTD/sodipodi-0.dtd"
   xmlns="http://www.w3.org/2000/svg"
   xmlns:svg="http://www.w3.org/2000/svg"><sodipodi:namedview
     id="namedview1"
     pagecolor="#ffffff"
     bordercolor="#000000"
     borderopacity="0.25"
     inkscape:showpageshadow="2"
     inkscape:pageopacity="0.0"
     inkscape:pagecheckerboard="0"
     inkscape:deskcolor="#d1d1d1"
     inkscape:document-units="px"
     showguides="true"
     inkscape:zoom="4"
     inkscape:cx="325.25"
     inkscape:cy="286.5"
     inkscape:window-width="2560"
     inkscape:window-height="1440"
     inkscape:window-x="0"
     inkscape:window-y="0"
     inkscape:window-maximized="1"
     inkscape:current-layer="layer1"><sodipodi:guide
       position="256,256"
       orientation="1,0"
       id="guide1"
       inkscape:locked="false" /><sodipodi:guide
       position="256,256"
       orientation="0,-1"
       id="guide2"
       inkscape:locked="false" /></sodipodi:namedview><defs
     id="defs1" /><g
     inkscape:label="Layer 1"
     inkscape:groupmode="layer"
     id="layer1"><path
       style="fill:#00acd7;fill-opacity:1"
       d="m 286.39375,388.94099 c -0.13708,-0.35722 0.28157,-1.30067 0.95829,-2.15956 0.66095,-0.83885 1.74642,-2.30184 2.41216,-3.25108 0.66574,-0.94924 1.34627,-1.8204 1.51229,-1.93591 0.16602,-0.11552 2.53571,-3.22915 5.26598,-6.91918 4.83229,-6.53099 5.3833,-7.25623 6.32283,-8.32215 0.24748,-0.28077 2.12235,-2.77875 4.1664,-5.55107 2.04404,-2.77231 3.84451,-5.13509 4.00105,-5.2506 0.15653,-0.11551 2.23939,-2.85633 4.62857,-6.0907 2.38918,-3.23437 4.88207,-6.54225 5.53976,-7.35084 1.46377,-1.79965 1.06231,-1.27519 5.62683,-7.35085 2.08278,-2.77232 6.02985,-7.97042 8.77126,-11.55133 2.74141,-3.58091 6.68847,-8.77901 8.77126,-11.55133 2.08278,-2.77232 3.94686,-5.2296 4.14238,-5.46062 0.19553,-0.23103 2.63161,-3.4444 5.41352,-7.14083 2.78191,-3.69642 5.70328,-7.50867 6.49194,-8.47165 0.78865,-0.96299 1.43392,-1.9396 1.43392,-2.17025 0,-0.23065 0.16203,-0.48237 0.36008,-0.55938 0.19805,-0.077 3.63273,-4.48752 7.63263,-9.80113 8.17474,-10.85963 9.75489,-12.92992 10.0989,-13.23152 0.13176,-0.11551 1.61536,-2.05766 3.29688,-4.31588 l 3.05732,-4.10585 -0.73651,-1.14475 c -0.40509,-0.62962 -1.46338,-2.02158 -2.35178,-3.09326 -0.88839,-1.07169 -1.61525,-2.13834 -1.61525,-2.37034 0,-0.23201 -0.28354,-0.53063 -0.63008,-0.66361 -0.34654,-0.13298 -0.63007,-0.53125 -0.63007,-0.88504 0,-0.35379 -0.16163,-0.64325 -0.35918,-0.64325 -0.19756,0 -1.13972,-1.11272 -2.0937,-2.47272 -1.48064,-2.11079 -2.32144,-3.20594 -5.06166,-6.59282 -0.72912,-0.90119 -9.09193,-12.04457 -9.70008,-12.92528 -0.34249,-0.496 -0.8623,-1.05297 -1.15513,-1.23772 -0.29283,-0.18475 -0.53242,-0.5943 -0.53242,-0.91011 0,-0.3158 -0.15937,-0.6372 -0.35415,-0.71421 -0.19478,-0.077 -1.53938,-1.7467 -2.98799,-3.71043 -1.44862,-1.96372 -2.75418,-3.66492 -2.90123,-3.78043 -0.14706,-0.11551 -0.4564,-0.51647 -0.68743,-0.89101 -0.86888,-1.40863 -8.36463,-11.08623 -8.69071,-11.22038 -0.18718,-0.077 -0.34033,-0.39841 -0.34033,-0.71422 0,-0.3158 -0.24081,-0.72535 -0.53514,-0.9101 -0.29433,-0.18475 -0.89606,-0.90297 -1.33718,-1.59605 -0.44113,-0.69308 -1.00365,-1.4801 -1.25007,-1.74893 -0.24641,-0.26883 -0.85257,-1.02492 -1.34702,-1.68019 -0.49445,-0.65528 -2.85722,-3.74638 -5.2506,-6.86911 -2.39338,-3.12273 -5.94549,-7.84828 -7.89357,-10.50121 -1.94808,-2.65293 -3.75647,-5.01253 -4.01865,-5.24356 -0.26217,-0.23102 -2.14089,-2.6736 -4.17492,-5.42795 -2.03404,-2.75435 -3.86147,-5.21163 -4.06095,-5.46063 -1.53873,-1.92062 -3.00682,-3.83521 -7.56097,-9.86054 -2.86321,-3.78814 -5.39485,-7.19053 -5.62588,-7.56087 -0.23102,-0.37034 -0.53426,-0.76785 -0.67385,-0.88336 -0.24069,-0.19918 -3.87169,-4.96783 -12.25232,-16.0912 -2.20435,-2.92577 -3.6416,-5.20834 -3.50449,-5.56564 0.20088,-0.52349 7.99223,-0.60572 57.39128,-0.60572 h 57.15885 l 0.92601,0.95369 c 1.3418,1.38192 3.83835,4.52638 4.03435,5.08137 0.0924,0.26163 0.30458,0.5702 0.47152,0.68571 0.16694,0.11551 2.05398,2.56046 4.19343,5.43322 2.13945,2.87276 4.06287,5.42455 4.27427,5.67065 0.32337,0.37646 2.14393,2.77533 7.51222,9.89854 0.43527,0.57757 1.51836,1.99523 2.40686,3.15037 5.58185,7.25695 12.12548,15.95234 12.51453,16.62973 0.25149,0.43788 0.83614,1.12831 1.29922,1.53429 0.46308,0.40598 1.04208,1.11619 1.28665,1.57825 0.35484,0.67034 2.93028,4.08996 5.06168,6.72077 0.18717,0.23102 2.01265,2.68831 4.05662,5.46063 2.04398,2.77232 3.97152,5.19173 4.28343,5.37648 0.31191,0.18475 0.56711,0.52352 0.56711,0.75282 0,0.2293 0.18244,0.6452 0.40544,0.92423 0.22299,0.27904 0.94711,1.16891 1.60915,1.9775 0.66205,0.8086 2.59932,3.36039 4.30505,5.67066 1.70573,2.31026 3.34438,4.35164 3.64145,4.53639 0.29706,0.18475 0.54011,0.59429 0.54011,0.9101 0,0.31581 0.15914,0.63721 0.35365,0.71421 0.19451,0.077 2.26475,2.69181 4.60054,5.81067 2.33578,3.11886 6.19336,8.24815 8.57238,11.39842 2.37902,3.15027 4.70353,6.24282 5.16558,6.87233 0.46206,0.62951 1.07633,1.39361 1.36506,1.69799 0.28873,0.30439 1.96756,2.49181 3.73072,4.86093 3.55122,4.7717 3.43131,4.61449 5.09041,6.67396 1.74473,2.16574 3.22867,5.6338 4.10484,9.59322 0.64882,2.93201 0.69407,3.80535 0.27783,5.36165 -0.27348,1.02251 -0.5,2.18719 -0.50338,2.58817 -0.0154,1.82231 -6.94584,13.12048 -8.04833,13.12048 -0.19057,0 -0.34649,0.28947 -0.34649,0.64326 0,0.35379 -0.28354,0.75205 -0.63008,0.88503 -0.34654,0.13298 -0.63007,0.41325 -0.63007,0.62283 0,0.20957 -0.8564,1.46524 -1.90312,2.79038 -2.40724,3.04756 -2.01149,2.52814 -5.67627,7.44993 -1.72023,2.31026 -3.23495,4.29499 -3.36605,4.4105 -0.1311,0.11552 -2.20909,2.85633 -4.61775,6.0907 -2.40866,3.23438 -4.50414,5.97519 -4.65663,6.0907 -0.15248,0.11552 -2.01468,2.5728 -4.13822,5.46063 -2.12354,2.88783 -4.03295,5.31361 -4.24314,5.39062 -0.21018,0.077 -0.38215,0.32127 -0.38215,0.54279 0,0.39471 -0.39674,0.95037 -1.70123,2.38271 -0.35811,0.39321 -1.95533,2.51063 -3.54938,4.70538 -1.59404,2.19475 -3.23852,4.32861 -3.65438,4.7419 -0.41587,0.4133 -0.75612,0.89099 -0.75612,1.06153 0,0.17054 -0.51981,0.88746 -1.15514,1.59316 -1.35934,1.50993 -3.91676,4.78351 -9.15258,11.71561 -2.09394,2.77231 -5.97117,7.85191 -8.61608,11.28798 -2.64491,3.43607 -5.09246,6.66831 -5.439,7.18275 -0.84888,1.26018 -9.38436,12.55782 -9.68779,12.82286 -0.13225,0.11552 -2.01046,2.5728 -4.17381,5.46063 -2.16334,2.88783 -4.05963,5.34512 -4.21396,5.46063 -0.15433,0.11551 -0.3562,0.41756 -0.4486,0.67121 -0.19185,0.52668 -2.65393,3.62437 -4.03435,5.07587 l -0.92601,0.97369 H 343.586 c -50.40472,0 -56.9768,-0.0729 -57.19225,-0.63436 z"
       id="path42" /><path
       id="path3"
       style="display:inline;fill:#4285f4;fill-opacity:1"
       d="m 66.933594,180.02734 c -24.680994,32.28979 -50.559625,67.14588 -51.560547,72.19141 -1.030341,5.19383 -0.703368,7.85111 1.544922,12.60156 0.904762,1.91169 6.345048,9.77353 7.267578,10.50196 0.146295,0.11551 1.730258,2.18147 3.521484,4.59179 1.791225,2.41033 3.423823,4.58555 3.626953,4.83203 0.637152,0.77312 2.084364,2.68433 7.783204,10.28711 3.043002,4.05964 5.727098,7.60034 5.964843,7.86719 0.237744,0.26685 1.615569,2.06233 3.060547,3.99023 1.444978,1.9279 2.823108,3.71805 3.064453,3.97852 0.241346,0.26048 0.723773,0.8993 1.070313,1.41797 0.346539,0.51866 0.821459,1.15555 1.05664,1.41601 0.235182,0.26048 2.402254,3.11915 4.816407,6.35352 2.414153,3.23437 4.532372,6.06976 4.705078,6.30078 0.172706,0.23103 0.856631,1.08204 1.521484,1.89063 0.664852,0.80859 2.598366,3.36161 4.294922,5.67187 1.696556,2.31027 3.285574,4.41456 3.53125,4.67774 0.245676,0.26319 0.823103,0.99073 1.285156,1.61718 0.462053,0.62646 2.448384,3.25956 4.41211,5.85157 1.963726,2.592 6.108919,8.1019 9.21289,12.24414 3.103971,4.14223 5.765201,7.62666 5.914063,7.74218 0.148861,0.11551 1.941041,2.47768 3.982422,5.25 2.041381,2.77232 3.917534,5.23436 4.167964,5.47071 0.25042,0.23635 0.64398,0.72687 0.875,1.08984 1.00967,1.58632 8.34297,11.11145 8.76954,11.39063 0.25933,0.16974 26.13674,0.31045 57.50585,0.31445 49.36405,0.006 57.06588,-0.074 57.26758,-0.59961 0.0282,-0.0735 0.007,-0.20641 -0.0586,-0.38672 z" /><path
       id="path46"
       style="fill:#db4437;stroke:none;stroke-opacity:1;fill-opacity:1"
       d="m 66.933594,180.02734 c 0,0 58.273796,76.89376 58.273796,76.62677 0,-0.17331 2.51442,-3.29228 4.88245,-6.42755 2.36802,-3.13527 4.68444,-6.21799 5.14649,-6.84961 2.92246,-3.99494 3.75025,-5.01953 4.06055,-5.01953 0.19186,0 0.3496,-0.20661 0.3496,-0.46094 0,-0.38206 1.29784,-2.14089 5.41016,-7.33203 0.19318,-0.24385 1.73702,-2.32365 3.43164,-4.62109 1.69461,-2.29744 3.20311,-4.2712 3.35156,-4.38672 0.14844,-0.11551 0.44302,-0.51958 0.6543,-0.89648 0.44667,-0.7968 2.98793,-3.97168 4.05859,-5.07032 0.4043,-0.41486 0.73633,-0.88006 0.73633,-1.0332 0,-0.15314 1.65429,-2.44624 3.67578,-5.0957 6.50278,-8.52291 10.70129,-14.06944 15.83204,-20.91016 2.75949,-3.67919 5.45369,-7.14008 5.98632,-7.6914 0.53263,-0.55132 0.96875,-1.15292 0.96875,-1.33594 0,-0.18302 0.24645,-0.58144 0.54688,-0.88672 0.30043,-0.30529 1.90025,-2.37134 3.55664,-4.58984 1.6564,-2.21849 3.30086,-4.27308 3.6543,-4.56641 0.35344,-0.29332 0.64257,-0.78502 0.64257,-1.0918 0,-0.30677 0.23661,-0.70783 0.52539,-0.89258 0.28879,-0.18475 0.7143,-0.64246 0.94532,-1.01757 0.35384,-0.57451 7.54185,-10.08875 8.66601,-11.47071 2.77293,-3.40887 3.72461,-4.70755 3.72461,-5.07422 0,-0.24168 0.33204,-0.72719 0.73633,-1.07812 0.4043,-0.35092 1.15593,-1.19467 1.66992,-1.87695 0.51399,-0.68228 1.70538,-2.24213 2.64844,-3.46485 0.94306,-1.22271 3.72572,-4.90714 6.18359,-8.18945 2.45788,-3.2823 4.62412,-6.15764 4.81446,-6.38867 0.19033,-0.23102 0.81397,-0.98661 1.38671,-1.67969 0.57275,-0.69308 1.04269,-1.3738 1.04297,-1.51172 2.8e-4,-0.13792 0.38216,-0.6915 0.84961,-1.23047 0.46745,-0.53898 0.78358,-1.18248 0.70118,-1.42969 -0.15935,-0.47807 -111.88343,-0.91509 -114.33399,-0.44726 -0.30835,0.0589 -22.035235,27.6349 -44.779296,57.39062 z"
       sodipodi:nodetypes="csssssssssssssssssssssssssssssssssc" /><path
       style="display:inline;fill:#fe8820;fill-opacity:1;stroke-width:0.670913"
       d="m 212.61895,286.14939 c -15.91278,-4.73654 -30.92137,-12.73751 -45.49863,-24.7123 0,0 -3.58541,-2.43765 -4.69768,-3.98385 -1.11228,-1.5462 -1.61024,-1.91442 -1.34565,-4.33116 0.2646,-2.41673 1.51211,-4.92808 8.40945,-0.80941 13.38255,7.99122 21.80702,10.88247 37.57754,12.89652 14.43436,1.84343 20.80556,1.60207 34.19744,-1.29543 15.01257,-3.24814 29.7278,-9.58001 43.35719,-18.65629 9.85913,-6.56555 9.59893,-5.42204 2.93479,-12.89818 -3.14319,-3.52618 -6.01974,-7.26057 -6.39234,-8.29866 -0.8776,-2.44514 0.2841,-5.52464 2.63369,-6.98145 1.69055,-1.0482 2.5328,-0.94955 26.73293,3.1308 16.2115,2.7334 25.48372,4.56825 26.4006,5.2243 3.28743,2.35232 3.25922,2.60997 -3.34621,30.56572 -3.71288,15.71373 -6.51389,26.32911 -7.17661,27.19833 -0.59784,0.78409 -1.87056,1.53464 -2.82827,1.66788 -3.35272,0.46649 -4.80255,-1.06527 -8.5402,-9.02278 l -3.57433,-7.60983 -1.82385,1.3369 c -12.49789,9.16115 -34.83421,17.61428 -52.44456,19.84752 -13.55854,1.71941 -32.47855,0.33204 -44.5753,-3.26863 z"
       id="path33"
       sodipodi:nodetypes="sszzssssssssssssscsss" /></g></svg>
